<?xml version="1.0" encoding="iso-8859-1"?>
<!-- Generator: Adobe Illustrator 19.0.0, SVG Export Plug-In . SVG Version: 6.00 Build 0)  -->
<svg version="1.1" id="Capa_1" xmlns="http://www.w3.org/2000/svg" xmlns:xlink="http://www.w3.org/1999/xlink" x="0px" y="0px"
	 viewBox="0 0 511 511" style="enable-background:new 0 0 511 511;" xml:space="preserve">
<g>
	<path d="M327,144.521V127.5c0-3.119-0.934-6.021-2.526-8.455C331.372,107.041,335,93.481,335,79.5C335,35.664,299.336,0,255.5,0
		S176,35.664,176,79.5c0,13.982,3.628,27.542,10.526,39.545c-1.592,2.434-2.526,5.336-2.526,8.455v17.021
		c-27.067,3.675-48,26.921-48,54.979v96c0,23.925,17.78,43.775,40.821,47.032l14.297,114.372C173.351,460.76,160,476.596,160,495.5
		v8c0,4.142,3.358,7.5,7.5,7.5h64c8.547,0,15.5-6.953,15.5-15.5v-32v-96c0-4.687,3.813-8.5,8.5-8.5s8.5,3.813,8.5,8.5v96v32
		c0,8.547,6.953,15.5,15.5,15.5h64c4.142,0,7.5-3.358,7.5-7.5v-8c0-18.904-13.351-34.74-31.117-38.596l14.297-114.372
		C357.22,339.275,375,319.425,375,295.5v-96C375,171.442,354.067,148.195,327,144.521z M335,288v-65h25v65H335z M151,223h25v65h-25
		V223z M191,287h17v17h-17V287z M223,287h17v17h-17V287z M255,287h65v17h-65V287z M293.055,144c-2.647-4.765-7.728-8-13.555-8h-48
		c-5.827,0-10.908,3.235-13.555,8H199v-16.5c0-0.276,0.224-0.5,0.5-0.5h112c0.276,0,0.5,0.224,0.5,0.5V144H293.055z M231,151.5
		c0-0.276,0.224-0.5,0.5-0.5H248v8.5c0,4.142,3.358,7.5,7.5,7.5s7.5-3.358,7.5-7.5V151h16.5c0.275,0,0.499,0.223,0.5,0.498
		c0,0.001,0,0.001,0,0.002c0,0.003,0,0.006,0,0.01v7.99c0,9.098-7.402,16.5-16.5,16.5h-16c-9.098,0-16.5-7.402-16.5-16.5V151.5z
		 M255.5,15c35.565,0,64.5,28.935,64.5,64.5c0,11.51-3.032,22.663-8.785,32.5H199.784C194.032,102.164,191,91.011,191,79.5
		C191,43.935,219.935,15,255.5,15z M191.5,159H216v0.5c0,17.369,14.131,31.5,31.5,31.5h16c17.369,0,31.5-14.131,31.5-31.5V159h24.5
		c22.332,0,40.5,18.168,40.5,40.5v8.5h-25v-0.5c0-4.142-3.358-7.5-7.5-7.5s-7.5,3.358-7.5,7.5V272H191v-64.5
		c0-4.142-3.358-7.5-7.5-7.5s-7.5,3.358-7.5,7.5v0.5h-25v-8.5C151,177.168,169.168,159,191.5,159z M151.883,303H176v24.117
		C164.094,324.292,154.708,314.906,151.883,303z M232,495.5c0,0.276-0.224,0.5-0.5,0.5H175v-0.5c0-13.503,10.98-24.489,24.48-24.5
		c0.003,0,0.007,0,0.01,0c0.005,0,0.01-0.001,0.016-0.001H232V495.5z M255.5,344c-12.958,0-23.5,10.542-23.5,23.5V456h-25.879
		L191,335.035V319h17v8.5c0,4.142,3.358,7.5,7.5,7.5s7.5-3.358,7.5-7.5V319h17v8.5c0,4.142,3.358,7.5,7.5,7.5s7.5-3.358,7.5-7.5V319
		h65v16.035L304.879,456H279v-88.5C279,354.542,268.458,344,255.5,344z M336,495.5v0.5h-56.5c-0.276,0-0.5-0.224-0.5-0.5V471h32.494
		c0.005,0,0.01,0.001,0.016,0.001c0.003,0,0.007,0,0.01,0C325.02,471.011,336,481.997,336,495.5z M335,327.117V303h24.117
		C356.292,314.906,346.906,324.292,335,327.117z"/>
	<path d="M255.5,47c17.92,0,32.5,14.58,32.5,32.5c0,4.142,3.358,7.5,7.5,7.5s7.5-3.358,7.5-7.5c0-26.191-21.309-47.5-47.5-47.5
		c-4.142,0-7.5,3.358-7.5,7.5S251.358,47,255.5,47z"/>
	<path d="M279.5,215h16c4.142,0,7.5-3.358,7.5-7.5s-3.358-7.5-7.5-7.5h-16c-4.142,0-7.5,3.358-7.5,7.5S275.358,215,279.5,215z"/>
	<path d="M279.5,239h16c4.142,0,7.5-3.358,7.5-7.5s-3.358-7.5-7.5-7.5h-16c-4.142,0-7.5,3.358-7.5,7.5S275.358,239,279.5,239z"/>
</g>
</svg>
