<svg xmlns="http://www.w3.org/2000/svg" xmlns:xlink="http://www.w3.org/1999/xlink" width="623.62" height="870.24" viewBox="0 0 623.62 870.24">
  <defs>
    <clipPath id="clip-path">
      <rect id="Retângulo_9" data-name="Retângulo 9" width="623.62" height="870.24" transform="translate(62.3 -214.72)" fill="none"/>
    </clipPath>
  </defs>
  <g id="Camada_1" data-name="Camada 1" transform="translate(-62.3 214.72)">
    <path id="Caminho_2" data-name="Caminho 2" d="M685.92,652.17l-2.89,3.34h-6.69l-33.43-38.66,43.01-8.49Z" fill="#ededed"/>
    <path id="Caminho_3" data-name="Caminho 3" d="M265.59,536.85l200.39,38.73-29,27.63Z" fill="#ededed"/>
    <path id="Caminho_4" data-name="Caminho 4" d="M634.6,536.61h-.18l.07-.05Z" fill="#ededed"/>
    <path id="Caminho_5" data-name="Caminho 5" d="M685.92,655.51h-2.89l2.89-3.34Z" fill="#ededed"/>
    <path id="Caminho_6" data-name="Caminho 6" d="M643.27,616.41l-72.61,39.1h-8.02l-9.3-44.3Z" fill="#ededed"/>
    <path id="Caminho_7" data-name="Caminho 7" d="M265.93,536.72l-33.59,79.95-19.29,38.84h-.39l19.37-38.99,33.58-79.93.23-.09Z" fill="#ededed"/>
    <path id="Caminho_8" data-name="Caminho 8" d="M685.92,652.61l-2.47,2.9H683l2.92-3.43Z" fill="#ededed"/>
    <path id="Caminho_9" data-name="Caminho 9" d="M169.81,831.07,50,870.24h1.68l117.94-38.55-3.38,38.55h.52l3.42-38.9-.1-.23ZM374.3,817.88l-.26.25-7.25,52.11h.49l7.28-52.08-.24-.28ZM203.52,751.12l-.28.14v.31L286.22,824l-42.53,46.22h.71l42.38-46,.08-.19-.09-.19-82.45-72L403.68,790.3l86.88,35.88,9.6,44.06h.55L491,825.93l-.14-.17-87-35.94h-.06Z" transform="translate(62.3 -214.72)" fill="#ededed"/>
    <g id="Grupo_1" data-name="Grupo 1" clip-path="url(#clip-path)">
      <path id="Caminho_10" data-name="Caminho 10" d="M886.54,529.47l187.23,72.81,59,110.84,72.72,249.52-506-206.23ZM203,665v86.35a.44.44,0,0,0,.24.39L374.1,818.53a.44.44,0,0,0,.5-.08l68.85-66.64H571.87l.25-.08L884,531.18,698.39,756.32l-.09.38.26.29L1205,963.38h1.15v-1.55l-72.59-249-59.09-111.06-.23-.2-187.67-73h0l-114.3-32.9,31.21-161.22a.44.44,0,0,0-.86-.17L771.28,495.85a.44.44,0,0,0,.31.5l113.82,32.77L571.73,750.94H443.28l-.31.13-68.75,66.54-170.31-66.5V665.67l95.57,38a.44.44,0,1,0,.33-.81l-96.18-38.23h-.4Z" transform="translate(62.3 -214.72)" fill="#ededed"/>
      <path id="Caminho_11" data-name="Caminho 11" d="M373.48,818.57,169.79,832.24-10.27,779.62v-.87l180.08,52.57L374.3,817.71a.43.43,0,0,1,.38.23v.45l-102.89,145h-.94l.05-.24Z" transform="translate(62.3 -214.72)" fill="#ededed"/>
      <path id="Caminho_12" data-name="Caminho 12" d="M840.17,835.03,666.04,623.36,274.71,773.01v75.5l562.78-13.48" fill="none" stroke="#dadada" stroke-width="0.5"/>
    </g>
    <path id="Caminho_13" data-name="Caminho 13" d="M485.72,655.51h-.05v-.01Z" fill="#fff"/>
    <path id="Caminho_14" data-name="Caminho 14" d="M546.6,655.51H531.21l20.23-9.53Z" fill="#2b3086"/>
    <path id="Caminho_15" data-name="Caminho 15" d="M466.51,623.01l14.26,5.28-4.14-10.38Z" fill="#fff"/>
    <path id="Caminho_16" data-name="Caminho 16" d="M230.13,655.51H203.62l-21.45-13.49,4.87,13.49h-3.95l-4.69-42.37Z" fill="#ededed"/>
    <path id="Caminho_17" data-name="Caminho 17" d="M131.96,602.09,78.83,590.05l35.05-15.8L77.29,542.64,62.3,555.53v-.14l51.64-44.65Z" fill="#ededed"/>
    <path id="Caminho_18" data-name="Caminho 18" d="M76.89,442.47,62.3,438.81v-60l11.84-8.58Z" fill="#ededed"/>
    <path id="Caminho_19" data-name="Caminho 19" d="M183.09,184.6,149.61,357.81l-23.89-25.06Z" fill="#ededed"/>
    <path id="Caminho_20" data-name="Caminho 20" d="M183.29,503.41v.15l.04-.09L291,655.51h-4.73l-94.51-68.35-8.52-83.82Z" fill="#ededed"/>
    <path id="Caminho_21" data-name="Caminho 21" d="M131.96,602.09,62.3,649.02V611.23l16.49-21.16Z" fill="#ededed"/>
    <path id="Caminho_22" data-name="Caminho 22" d="M420.59,655.51H388.84l-1.43-6.5Z" fill="#ededed"/>
    <path id="Caminho_23" data-name="Caminho 23" d="M214.94,432.16l-31.61,71.31-.04-.06-.16-111.28Z" fill="#ededed"/>
    <path id="Caminho_24" data-name="Caminho 24" d="M183.33,503.47l-.04.09v-.15Z" fill="#ededed"/>
    <path id="Caminho_25" data-name="Caminho 25" d="M203.62,655.51H187.04l-4.87-13.49Z" fill="#ededed"/>
    <path id="Caminho_26" data-name="Caminho 26" d="M78.83,590.05l-.04.02L62.3,586.32v-.02Z" fill="#ededed"/>
    <path id="Caminho_27" data-name="Caminho 27" d="M113.88,574.25l-35.05,15.8L62.3,586.3V555.53l14.99-12.89Z" fill="#ededed"/>
    <path id="Caminho_28" data-name="Caminho 28" d="M118.81,433.32l-4.5,77.74L77.16,442.07Z" fill="#ededed"/>
    <path id="Caminho_29" data-name="Caminho 29" d="M0,344.52v.34l51.79,25.72,69.1,29,.2-.08-.08-.2-69.09-29Zm16-84.09-.21.07L0,292.33V293l16.07-32.37Z" transform="translate(62.3 -214.72)" fill="#ededed"/>
    <path id="Caminho_30" data-name="Caminho 30" d="M77.29,542.64l36.96,31.54.06.14-.09.11L78.79,590.07,62.3,611.23v-.49l16.28-20.89.06-.04,35.24-15.56L77.06,542.84l-.04-.06L62.3,501.24v-.9Z" fill="#ededed"/>
    <path id="Caminho_31" data-name="Caminho 31" d="M181.98,641.32l5.13,14.19h-.32l-4.98-13.79-8.06,13.79h-.35l8.31-14.22.14-.07Z" fill="#ededed"/>
    <path id="Caminho_32" data-name="Caminho 32" d="M191.89,587.2l66.85,68.31h-.42l-66.5-67.95-12.94,25.35-.03.03-39.28,42.57h-.4l39.45-42.76,13.03-25.51.11-.08Z" fill="#ededed"/>
    <path id="Caminho_33" data-name="Caminho 33" d="M483.96,557.79l-35.95,97.72h-.48l36.01-97.87.28-.14Z" fill="#ededed"/>
    <path id="Caminho_34" data-name="Caminho 34" d="M0,538.11v.41l63.23,8.84.24-.21h0l-.21-.23ZM121.05,399.28h-.26L58.16,471,0,417.48v.61l58,53.4.16.07.16-.08,62.25-71.27L87.31,572.54l-31,75.1-41.55,9.05-3.41-84.08-.11-.19L0,565.85v.53l10.9,6.37L14.31,657l.09.17h.19l41.92-9.14.15-.12L87.73,572.7v-.05l33.43-173.13ZM0,251v.53l15.75,9.23L51.54,370.19,0,365.67v.45l51.84,4.55.19-.08v-.21L16.15,260.49l-.1-.12Z" transform="translate(62.3 -214.72)" fill="#ededed"/>
    <g id="Grupo_2" data-name="Grupo 2" clip-path="url(#clip-path)">
      <path id="Caminho_35" data-name="Caminho 35" d="M312.77,989.9l-62.94,161.84-95.81,51L-61.66,1265.6,116.6,828.18ZM195.59,399.1H121a.36.36,0,0,0-.33.21L62.91,547a.36.36,0,0,0,.07.43l57.6,59.51v111l.06.22L311.29,987.71,116.68,827.27l-.33-.07-.25.22L-62.3,1265.17v1H-61l215.26-62.74,96-51.08.18-.2,63.08-162.22h0L342,891.08l139.35,27a.38.38,0,0,0,.15-.74l-139.7-27a.38.38,0,0,0-.43.27l-28.32,98.38L121.33,717.79v-111l-.11-.26L63.7,547.07l57.48-147.22H195l-32.8,82.62a.37.37,0,0,0,.21.49.39.39,0,0,0,.49-.21l33-83.13v-.35Z" transform="translate(62.3 -214.72)" fill="#ededed"/>
      <path id="Caminho_36" data-name="Caminho 36" d="M-62.3,906h.15l.26-.11,35.42,272.91,120.72,41.11,24.92-363.85.2-.31h.37l135.79,86,.17.32-.16.31L138.19,1021.3,272,1095.63l190.76-2.57.08.14-2.35.64-188.58,2.54-.18-.05-132.59-73.65-1.38-1.6a.39.39,0,0,0-.43-.1l-.17.15.1-.11,117.38-78.95L119.87,856.75,95,1220.46l-.17.29H94.5l-121.41-41.34a.4.4,0,0,1-.25-.31L-62.3,908.52Z" transform="translate(62.3 -214.72)" fill="#ededed"/>
      <path id="Caminho_37" data-name="Caminho 37" d="M62.87,546.43,51.06,370.37,96.54,214.72h.75L51.86,370.39,63.62,547.14a.38.38,0,0,1-.2.33h-.39L-62.3,458.51v-.81l.21.05Z" transform="translate(62.3 -214.72)" fill="#ededed"/>
    </g>
    <path id="Caminho_38" data-name="Caminho 38" d="M135.8,655.51H110.39l26.66-5.54Z" fill="#0068b0"/>
    <path id="Caminho_39" data-name="Caminho 39" d="M97.79,550.01l39.26,99.96,40.87-45.67Z" fill="#0068b0"/>
    <path id="Caminho_40" data-name="Caminho 40" d="M137.05,649.97,156,655.51l-18.95-5.54Z" fill="#0068b0"/>
    <path id="Caminho_41" data-name="Caminho 41" d="M263.04,655.51H219.96l64.13-97.49Z" fill="#0068b0"/>
    <path id="Caminho_42" data-name="Caminho 42" d="M398.67,574.25l-22.03,51.28,22.03-51.28Z" fill="#0068b0"/>
    <path id="Caminho_43" data-name="Caminho 43" d="M406.3,870.24,336.37,789Z" transform="translate(62.3 -214.72)" fill="#0068b0"/>
    <path id="Caminho_44" data-name="Caminho 44" d="M471.69,655.51H459.35l-82.71-29.98,67.01-94.51Z" fill="#0068b0"/>
    <path id="Caminho_45" data-name="Caminho 45" d="M459.35,655.51h0l-82.71-29.98h0Z" fill="#0068b0"/>
    <path id="Caminho_46" data-name="Caminho 46" d="M376.64,625.53l-30.37,29.98h0l30.37-29.98Z" fill="#0068b0"/>
    <path id="Caminho_47" data-name="Caminho 47" d="M362.41,857.68l34.64,12.56h0Zm-48.07-17.43,48.07,17.43Z" transform="translate(62.3 -214.72)" fill="#0068b0"/>
    <path id="Caminho_48" data-name="Caminho 48" d="M284.09,558.02h0l92.55,67.51h0Z" fill="#0068b0"/>
    <path id="Caminho_49" data-name="Caminho 49" d="M376.64,625.53l-30.37,29.98H306.76l-22.67-97.49Z" fill="#2b3086"/>
    <path id="Caminho_50" data-name="Caminho 50" d="M361.41,587.07l-16.64-33.62,41.08,7.58Z" fill="#cdcccc"/>
    <path id="Caminho_51" data-name="Caminho 51" d="M263.04,655.51h0l21.05-97.49Z" fill="#0068b0"/>
    <path id="Caminho_52" data-name="Caminho 52" d="M244.46,870.24l-22.67-97.49Z" transform="translate(62.3 -214.72)" fill="#0068b0"/>
    <path id="Caminho_53" data-name="Caminho 53" d="M306.76,655.51H263.04l21.05-97.49Z" fill="#0068b0"/>
    <g id="Grupo_3" data-name="Grupo 3" clip-path="url(#clip-path)">
      <path id="Caminho_54" data-name="Caminho 54" d="M284.09,558.02Z" fill="#0068b0"/>
    </g>
    <path id="Caminho_55" data-name="Caminho 55" d="M328.54,539.92,181.52,565.03,163.5,510.94Z" fill="#d20a11"/>
    <path id="Caminho_56" data-name="Caminho 56" d="M284.09,558.02,177.92,604.29l106.17-46.27Z" fill="#0068b0"/>
    <path id="Caminho_57" data-name="Caminho 57" d="M219.96,655.51H202.19L177.92,604.3l106.17-46.28Z" fill="#d20a11"/>
    <path id="Caminho_58" data-name="Caminho 58" d="M74.75,864.69,68,866.09l-20,4.15H73.5ZM74.75,864.69Z" transform="translate(62.3 -214.72)" fill="#0068b0"/>
    <path id="Caminho_59" data-name="Caminho 59" d="M74.75,864.69Z" transform="translate(62.3 -214.72)" fill="#0068b0"/>
    <path id="Caminho_60" data-name="Caminho 60" d="M48.08,870.24l20-4.15Z" transform="translate(62.3 -214.72)" fill="#0068b0"/>
    <path id="Caminho_61" data-name="Caminho 61" d="M97.79,550.01h0l80.13,54.29h0Z" fill="#0068b0"/>
    <g id="Grupo_4" data-name="Grupo 4" clip-path="url(#clip-path)">
      <path id="Caminho_62" data-name="Caminho 62" d="M177.92,604.3h0v0Z" fill="#0068b0"/>
    </g>
    <path id="Caminho_63" data-name="Caminho 63" d="M97.79,550.01l6.93,17.65,32.33,82.31,40.87-45.67Z" fill="#9d9d9c"/>
    <path id="Caminho_64" data-name="Caminho 64" d="M177.92,604.3h0l-40.87,45.67h0l40.87-45.68Z" fill="#0068b0"/>
    <path id="Caminho_65" data-name="Caminho 65" d="M97.79,550.01h0l6.93,17.65Z" fill="#0068b0"/>
    <path id="Caminho_66" data-name="Caminho 66" d="M202.19,655.51h0L177.92,604.3Z" fill="#0068b0"/>
    <path id="Caminho_67" data-name="Caminho 67" d="M202.19,655.51H156l-18.95-5.54,40.87-45.67Z" fill="#283583"/>
    <path id="Caminho_68" data-name="Caminho 68" d="M139.9,870.24,115.62,819Z" transform="translate(62.3 -214.72)" fill="#2b3086"/>
    <g id="Grupo_5" data-name="Grupo 5" clip-path="url(#clip-path)">
      <path id="Caminho_69" data-name="Caminho 69" d="M177.92,604.3h0v0Z" fill="#0068b0"/>
    </g>
    <path id="Caminho_70" data-name="Caminho 70" d="M177.92,604.29l-40.87,45.68,40.87-45.68v0Z" fill="#2b3086"/>
    <path id="Caminho_71" data-name="Caminho 71" d="M62.35,655.51h0l-.05-.12h0Z" fill="#0068b0"/>
    <path id="Caminho_72" data-name="Caminho 72" d="M62.35,655.51H62.3v-.12Z" fill="#0068b0"/>
    <path id="Caminho_73" data-name="Caminho 73" d="M62.3,570.17V540.91L104,518.28Z" fill="#36a0da"/>
    <path id="Caminho_74" data-name="Caminho 74" d="M68,866.09l6.71-1.4ZM74.71,864.69Zm-39.26-100L6,870.24H6L35.49,764.73Z" transform="translate(62.3 -214.72)" fill="#0068b0"/>
    <path id="Caminho_75" data-name="Caminho 75" d="M137.05,649.97l-6.71,1.39,6.71-1.39Z" fill="#0068b0"/>
    <path id="Caminho_76" data-name="Caminho 76" d="M74.75,864.69Z" transform="translate(62.3 -214.72)" fill="#0068b0"/>
    <path id="Caminho_77" data-name="Caminho 77" d="M35.49,764.73,6,870.24H48.09l20-4.15,6.71-1.4L42.42,782.38ZM35.49,764.73Z" transform="translate(62.3 -214.72)" fill="#ededed"/>
    <path id="Caminho_78" data-name="Caminho 78" d="M104.72,567.66h0l32.33,82.31Z" fill="#0068b0"/>
    <path id="Caminho_79" data-name="Caminho 79" d="M74.75,864.69Z" transform="translate(62.3 -214.72)" fill="#0068b0"/>
    <path id="Caminho_80" data-name="Caminho 80" d="M97.79,550.01h0l6.93,17.65-6.93-17.65Z" fill="#0068b0"/>
    <path id="Caminho_81" data-name="Caminho 81" d="M157.65,870.24l64.14-97.49Z" transform="translate(62.3 -214.72)" fill="#0068b0"/>
    <path id="Caminho_82" data-name="Caminho 82" d="M263.04,655.51H219.96l64.13-97.49Z" fill="#a70f08"/>
    <path id="Caminho_83" data-name="Caminho 83" d="M157.65,870.24l64.14-97.49Z" transform="translate(62.3 -214.72)" fill="#0068b0"/>
  </g>
</svg>
